<?xml version="1.0" encoding="UTF-8"?>
<svg width="741px" height="726px" viewBox="0 0 741 726" version="1.1" xmlns="http://www.w3.org/2000/svg" xmlns:xlink="http://www.w3.org/1999/xlink">
    <!-- Generator: Sketch 63.1 (92452) - https://sketch.com -->
    <title>noun_branding_694960</title>
    <desc>Created with Sketch.</desc>
    <g id="Symbols" stroke="none" stroke-width="1" fill="none" fill-rule="evenodd">
        <g id="noun_branding_694960" fill="#2F2F8E" fill-rule="nonzero">
            <path d="M288.746251,1.14859501 C302.308311,-1.86467184 316.511285,1.1157417 327.717241,9.32643627 L327.717241,9.32643627 L342.587334,20.8113874 C359.421735,32.8909724 382.086193,32.8909724 398.920594,20.8113874 L398.920594,20.8113874 L414.656141,9.79842056 C425.941206,1.65655534 440.1899,-1.22392786 453.752183,1.89485463 C467.314467,5.01363712 478.872721,13.8286855 485.466105,26.0818787 L485.466105,26.0818787 L494.828756,42.9946492 C503.265045,58.596822 519.575414,68.3209426 537.314735,68.3244729 C539.95238,68.3061222 542.583972,68.0693202 545.182508,67.6164965 L545.182508,67.6164965 L563.90781,64.3912705 C566.575857,63.8252014 569.286565,63.4831327 572.011617,63.3686378 C597.764367,63.4237758 618.946114,83.6675106 620.162393,109.387106 L620.162393,109.387106 L621.027848,128.345142 C622.023047,149.040975 636.10972,166.79659 656.039441,172.475674 L656.039441,172.475674 L674.292676,177.667501 C687.650054,181.40979 698.753824,190.712628 704.77619,203.206864 C710.798557,215.7011 711.158288,230.180887 705.763771,242.958661 L705.763771,242.958661 L698.368064,260.42208 C690.236116,279.539882 695.242249,301.715093 710.799146,315.486914 L710.799146,315.486914 L724.961139,328.073162 C735.263313,337.319767 741.102569,350.541236 740.998636,364.382712 C740.891901,378.224188 734.852102,391.355289 724.410395,400.444087 L724.410395,400.444087 L710.405758,412.479687 C694.765816,426.19326 689.662616,448.377224 697.738642,467.544521 L697.738642,467.544521 L705.055672,485.086604 C710.395364,497.846924 710.007045,512.283826 703.989122,524.73876 C697.971199,537.193693 686.901248,546.471284 673.584577,550.220436 L673.584577,550.220436 L655.252664,555.333599 C635.282472,560.909469 621.098269,578.604982 620.005037,599.306803 L620.005037,599.306803 L618.903549,618.579495 C617.525696,644.175179 596.389922,664.236859 570.752773,664.283307 C567.876563,664.273983 565.006794,664.010747 562.1769,663.496667 L562.1769,663.496667 L543.451598,660.192777 C523.493487,657.025278 503.676546,666.633723 493.805946,684.263976 L493.805946,684.263976 L484.679328,700.940754 C478.006126,713.123903 466.402415,721.838138 452.840355,724.851405 C439.278294,727.864672 425.07532,724.884258 413.869364,716.673564 L413.869364,716.673564 L398.133816,705.581933 C381.299415,693.502348 358.634957,693.502348 341.800556,705.581933 L341.800556,705.581933 L326.065009,716.5949 C314.788099,724.762872 300.530571,727.658967 286.959818,724.538237 C273.389064,721.417506 261.829687,712.584556 255.255045,700.311442 L255.255045,700.311442 L246.207105,683.634663 C236.347584,665.411354 215.961823,655.505091 195.538642,659.012816 L195.538642,659.012816 L176.81334,662.238042 C174.351908,662.770702 171.853023,663.112595 169.338955,663.260675 C143.586205,663.205537 122.404458,642.961802 121.188179,617.242206 L121.188179,617.242206 L120.244047,598.28417 C119.248847,577.588337 105.162174,559.832723 85.2324533,554.153639 L85.2324533,554.153639 L66.9792181,548.961812 C53.6218399,545.219523 42.51807,535.916684 36.4957038,523.422448 C30.4733376,510.928213 30.1136065,496.448425 35.508123,483.670651 L35.508123,483.670651 L42.9038303,466.207232 C51.0357785,447.08943 46.0296457,424.914219 30.4727478,411.142398 L30.4727478,411.142398 L16.310755,398.55615 C5.93922778,389.388209 0,376.212013 0,362.370688 C0,348.529362 5.93922778,335.353166 16.310755,326.185225 L16.310755,326.185225 L30.3153923,314.149626 C45.9553344,300.436052 51.0585339,278.252089 42.9825081,259.084791 L42.9825081,259.084791 L35.6654785,241.542709 C30.3257861,228.782388 30.7141046,214.345486 36.7320279,201.890553 C42.7499511,189.435619 53.8199025,180.158029 67.1365736,176.408876 L67.1365736,176.408876 L85.4684865,171.295713 C105.438678,165.719844 119.622881,148.02433 120.716113,127.32251 L120.716113,127.32251 L121.817601,107.971154 C123.195454,82.3754691 144.331228,62.3137892 169.968377,62.2673412 C172.844587,62.2766651 175.714356,62.5399009 178.54425,63.0539816 L178.54425,63.0539816 L197.269552,66.4365357 C217.620085,70.0008255 237.984988,60.2311671 247.938015,42.1293446 L247.938015,42.1293446 L256.907277,25.059246 C263.580479,12.8760965 275.18419,4.16186185 288.746251,1.14859501 Z M303.48504,498.12395 C297.348552,495.502201 290.718846,494.825797 284.142479,497.68206 C273.224817,501.441313 262.751537,511.557781 256.335189,525.012041 C244.333416,549.267101 247.057549,602.778275 247.266405,605.073716 L247.266405,605.073716 L247.919643,613.726369 L254.989228,608.92476 C256.886597,607.679605 299.304109,578.869955 311.616915,552.140442 C322.423395,529.480632 318.930685,505.826039 303.48504,498.12395 Z M489.085811,119.28947 L479.161852,122.706563 C387.150951,153.692354 324.303377,194.823387 273.050419,309.925581 C228.990253,323.008404 198.136068,348.25051 179.867616,385.865466 L179.867616,385.865466 L173.56385,397.781466 L271.812321,425.208846 L280.090088,437.386259 C299.319397,465.674474 331.996149,481.780649 366.143961,479.801696 L366.143961,479.801696 L380.515407,478.968833 L461.905006,540.0453 L467.588524,528.342869 C485.856977,490.727913 486.882392,451.393079 470.642169,408.257842 C530.240418,297.243164 524.442312,221.972205 492.728602,129.868903 L492.728602,129.868903 L489.085811,119.28947 Z M399.31347,227.470046 C425.655415,220.004206 452.4498,234.84445 460.374867,260.192971 C467.828876,286.505898 453.921286,313.756539 427.579341,321.222379 C401.237396,328.688218 374.443011,313.847972 366.517944,288.499452 C359.063935,262.186524 373.689526,234.688658 399.31347,227.470046 Z" id="Shape"></path>
        </g>
    </g>
</svg>